<svg version="1.1" xmlns="http://www.w3.org/2000/svg" x="0" y="0" viewBox="0 0 680 230" xml:space="preserve" style="enable-background:new 0 0 680 230"><style>.st8{fill:#ea434a}</style><path d="M0 0h680v230H0V0z" style="fill:#f8f9fa"/><path d="M0 0h680v230H0V0z" style="fill:none"/><path d="M39.5 37.4h9V61H54V37.4h9.1v-4.9H39.5v4.9zm24.7 0h9.1V61h5.5V37.4h9.1v-4.9H64.2v4.9zM91.4 61h5.5V49.2h11.3v-4.4H96.9v-7.4h13.6v-4.9H91.4V61zm67 105.9c-1.5-1.7-3.3-3.1-5.4-4.1-2.1-1-4.5-1.6-7-1.6s-4.8.5-7 1.5c-2.1 1-4 2.3-5.5 4s-2.8 3.6-3.6 5.8c-.9 2.2-1.3 4.4-1.3 6.8 0 2.3.4 4.5 1.2 6.7s2 4.1 3.5 5.8 3.3 3 5.4 4c2.1 1 4.5 1.5 7.1 1.5 2.5 0 4.8-.5 6.9-1.5 2.1-1 4-2.3 5.5-4s2.7-3.5 3.6-5.7c.9-2.2 1.3-4.4 1.3-6.8 0-2.2-.4-4.4-1.2-6.6-.9-2.1-2-4.1-3.5-5.8zm-2.9 16.7c-.5 1.4-1.1 2.7-2 3.8s-2 2-3.2 2.7c-1.3.7-2.8 1-4.4 1-1.6 0-3.1-.3-4.4-1-1.3-.7-2.4-1.6-3.2-2.7-.9-1.1-1.6-2.4-2-3.8-.5-1.4-.7-2.9-.7-4.5 0-1.5.2-2.9.7-4.3.4-1.4 1.1-2.7 2-3.8s1.9-2 3.2-2.7 2.8-1 4.4-1c1.6 0 3 .3 4.3 1s2.4 1.5 3.2 2.6c.9 1.1 1.6 2.4 2 3.8.5 1.4.7 2.9.7 4.5 0 1.4-.2 2.9-.6 4.4zm8.3-16.2h11.3v29.5h6.9v-29.5h11.3v-6h-29.5v6zm33.9 29.5h6.9v-14.7h14.1v-5.6h-14.1v-9.2h16.9v-6h-23.8v35.5zm81.9-136.4h18v-6.6h-18V43.7h20.8v-7.3h-29.1v42.5h29.6v-7.3h-21.3V60.5zm60.2-17.6c-1.8-2-4-3.7-6.5-5-2.5-1.3-5.4-1.9-8.4-1.9s-5.8.6-8.3 1.8c-2.6 1.2-4.8 2.8-6.6 4.8-1.9 2-3.3 4.3-4.4 6.9s-1.6 5.3-1.6 8.2c0 2.7.5 5.4 1.5 8 1 2.6 2.4 4.9 4.2 6.9 1.8 2 4 3.6 6.5 4.9 2.5 1.2 5.4 1.8 8.5 1.8 3 0 5.8-.6 8.3-1.8 2.6-1.2 4.8-2.8 6.6-4.7 1.8-2 3.3-4.3 4.3-6.8s1.6-5.3 1.6-8.1c0-2.7-.5-5.3-1.5-7.9-1-2.8-2.4-5-4.2-7.1zm-3.4 20c-.5 1.7-1.3 3.2-2.4 4.6s-2.4 2.5-3.9 3.3-3.3 1.2-5.3 1.2-3.7-.4-5.2-1.2c-1.5-.8-2.8-1.9-3.9-3.2-1.1-1.3-1.9-2.8-2.4-4.6-.6-1.7-.8-3.5-.8-5.3 0-1.8.3-3.5.8-5.2.5-1.7 1.3-3.2 2.4-4.6 1-1.3 2.3-2.4 3.9-3.2 1.6-.8 3.3-1.2 5.3-1.2 1.9 0 3.6.4 5.2 1.2 1.5.8 2.8 1.8 3.9 3.1s1.9 2.8 2.5 4.6c.6 1.7.9 3.5.9 5.3-.2 1.8-.5 3.5-1 5.2zm9.9-19.2h13.6v35.2h8.2V43.7h13.6v-7.3h-35.4v7.3zM570 179.8c-1-.8-2.2-1.5-3.6-2s-3-1-4.7-1.5c-1.3-.3-2.5-.6-3.5-.9-1-.3-1.9-.6-2.5-1-.7-.4-1.2-.8-1.5-1.3s-.5-1.1-.5-1.8c0-1.3.5-2.2 1.4-3 .9-.7 2.4-1 4.2-1 1.1 0 2.1.1 3.2.4 1 .3 2 .6 2.9 1s1.6.8 2.2 1.2c.6.4 1 .7 1.3 1l3.1-5.6c-1.6-1.1-3.4-2-5.5-2.8s-4.4-1.2-6.9-1.2c-1.8 0-3.5.2-5 .7-1.6.5-2.9 1.2-4.1 2.1-1.2.9-2.1 2.1-2.8 3.5s-1 3-1 4.8c0 1.4.2 2.5.6 3.5.4 1 1 1.9 1.9 2.6s1.9 1.4 3.1 1.9c1.2.6 2.7 1.1 4.4 1.5 1.4.4 2.7.8 3.8 1.1s2.1.7 2.9 1.1c.8.4 1.4.9 1.9 1.4.4.5.6 1.2.6 2 0 2.4-1.9 3.7-5.7 3.7-1.4 0-2.7-.2-4-.5s-2.5-.7-3.5-1.2c-1.1-.5-2-1-2.8-1.4-.8-.5-1.3-.9-1.6-1.2l-3.1 6c2.1 1.5 4.4 2.6 7 3.4 2.6.8 5.2 1.2 7.9 1.2 1.7 0 3.4-.2 5-.6s3-1 4.2-1.8 2.2-1.9 2.9-3.3c.7-1.3 1.1-3 1.1-4.9 0-1.6-.3-3-.8-4.1-.8-1.2-1.5-2.2-2.5-3zm20.7 8.4-9.6-26.8h-7.2l13.9 35.5h5.8l13.9-35.5h-7.3l-9.5 26.8zm36.8-9.4v5h7.2v2.5c-2.8 3.2-5.9 4.9-9.3 4.9-1.5 0-2.9-.3-4.2-.9-1.3-.6-2.4-1.5-3.3-2.5-.9-1.1-1.7-2.3-2.2-3.8s-.8-3-.8-4.7c0-1.6.2-3.1.7-4.5s1.2-2.7 2.1-3.8c.9-1.1 1.9-2 3.2-2.6 1.2-.6 2.6-1 4.1-1 1.9 0 3.7.5 5.3 1.4s2.9 2.3 3.8 4l5.2-3.8c-1.2-2.4-3-4.2-5.4-5.7-2.4-1.4-5.2-2.1-8.6-2.1-2.5 0-4.8.5-6.8 1.4s-3.9 2.2-5.5 3.9c-1.6 1.6-2.8 3.5-3.7 5.6-.9 2.2-1.3 4.4-1.3 6.9 0 2.6.4 5 1.3 7.2s2.1 4.1 3.6 5.8c1.5 1.6 3.3 2.9 5.4 3.8 2 .9 4.2 1.4 6.6 1.4 3.8 0 7.1-1.4 9.9-4.2v4h5.7v-18.2h-13zM420 173.2l-2.7-6.8 3.6-9.6h-3.8l-2.4 7-2.4-7h-3.8l3.5 9.6-2.6 6.8-6.1-16.6h-4.4l8.6 21.3h3.5l3.7-8.8 3.7 8.8h3.5l8.6-21.3H426l-6 16.6zm28.6-13.3c-.9-1-2-1.8-3.3-2.5-1.3-.6-2.7-.9-4.2-.9s-2.9.3-4.2.9c-1.3.6-2.4 1.4-3.3 2.4s-1.7 2.1-2.2 3.4c-.5 1.3-.8 2.7-.8 4.1 0 1.4.2 2.7.8 4 .5 1.3 1.2 2.5 2.1 3.5s2 1.8 3.3 2.4 2.7.9 4.2.9 2.9-.3 4.2-.9c1.3-.6 2.4-1.4 3.3-2.4s1.6-2.1 2.2-3.4.8-2.6.8-4.1c0-1.3-.3-2.7-.8-4-.5-1.2-1.2-2.4-2.1-3.4zm-1.7 9.9c-.3.8-.7 1.6-1.2 2.3s-1.2 1.2-2 1.6-1.7.6-2.7.6-1.9-.2-2.6-.6c-.8-.4-1.4-.9-2-1.6s-.9-1.4-1.2-2.3c-.3-.9-.4-1.7-.4-2.7 0-.9.1-1.7.4-2.6.3-.8.7-1.6 1.2-2.3s1.2-1.2 2-1.6c.8-.4 1.7-.6 2.7-.6s1.8.2 2.6.6c.8.4 1.4.9 2 1.6.5.7.9 1.4 1.2 2.3.3.9.4 1.8.4 2.7s-.2 1.9-.4 2.6zm7.7 8.1h4.1v-8.8h8.5v-3.3h-8.5v-5.6h10.2v-3.6h-14.3v21.3zm17.2 0h4.2v-8.8h8.4v-3.3H476v-5.6h10.1v-3.6h-14.3v21.3z" style="opacity:5.000000e-02;enable-background:new"/><path d="m346.5 36 2.6 4.6-8.3 9.8 12.6-2.2 2.6 4.5-16.7 2.7-8.6 11.1 30.6-4.9 3.1 5.3-38 5.1-2.4-4.2 10.5-13.7-17.1 2.2-2.4-4.2 23.4-30.4 3 5.3-19.6 24.1 13.9-1.9L346.5 36zM352.3 106.9l-4.3 2.5-12.2-21.1 30.7-17.7 11.9 20.7-4.3 2.5L365 78l-8.7 5 7.9 13.7-4 2.3-7.9-13.7-9.4 5.4 9.4 16.2zM372.8 133.9a8.9 8.9 0 0 1-3.8 1.2c-1.3.1-2.5-.1-3.7-.6-1.2-.5-2.3-1.2-3.3-2.1-1-.9-1.9-2.1-2.7-3.4l-8.5-14.7 30.7-17.7 9.1 15.8c.6 1.1.9 2.2 1 3.3 0 1.1-.1 2.2-.5 3.2s-1 2-1.7 2.9c-.7.9-1.6 1.6-2.5 2.1-1.5.9-3.1 1.3-4.9 1.3-1.8 0-3.4-.5-4.8-1.6.5 2.1.4 4-.4 5.8-.7 1.9-2.1 3.4-4 4.5zm-2-5.5c.6-.4 1.2-.8 1.6-1.4.5-.5.8-1.1 1-1.7.2-.6.3-1.3.3-1.9 0-.7-.2-1.3-.6-1.9l-5.8-10.1-9.4 5.4 5.7 9.8c.4.6.8 1.2 1.4 1.6.6.4 1.2.7 1.8.9.7.2 1.3.2 2 .1.7-.2 1.4-.4 2-.8zm9.4-24.5-9 5.2 5.1 8.9c.4.6.8 1.1 1.3 1.5.5.4 1.1.6 1.7.8.6.2 1.3.2 1.9.1.7-.1 1.3-.3 2-.7 1.3-.8 2.2-1.8 2.6-3s.3-2.4-.4-3.6l-5.2-9.2z"/><g><path d="m391.8 185.2-17.7-30.7 20.5-11.8 2.5 4.3-15.6 9 5.3 9.2 13.1-7.5 2.3 4-13.1 7.5 7.6 13.2-4.9 2.8z" class="st8"/><path d="M429.1 164c-2.2 1.3-4.4 2-6.8 2.1-2.3.2-4.5-.1-6.7-.8-2.1-.7-4.1-1.8-5.9-3.3-1.8-1.5-3.3-3.2-4.4-5.1-1.2-2-1.9-4.2-2.3-6.5-.3-2.3-.3-4.6.2-6.8s1.4-4.2 2.7-6.1c1.3-1.9 3-3.5 5.2-4.7 2.2-1.3 4.5-2 6.8-2.1 2.3-.1 4.6.2 6.7.9 2.1.7 4.1 1.8 5.9 3.3 1.8 1.5 3.2 3.1 4.3 5.1 1.2 2 1.9 4.2 2.3 6.5.3 2.3.3 4.5-.2 6.7s-1.4 4.2-2.7 6.1c-1.3 1.9-3 3.4-5.1 4.7zm-18.8-10c.8 1.4 1.9 2.7 3.1 3.8 1.2 1.1 2.6 1.9 4 2.5 1.5.5 3 .8 4.5.7 1.6-.1 3.1-.6 4.6-1.4 1.6-.9 2.7-2 3.6-3.4.8-1.3 1.3-2.8 1.6-4.3.2-1.6.2-3.1-.2-4.7-.3-1.6-.9-3.1-1.7-4.4-.8-1.5-1.9-2.7-3.1-3.8-1.2-1.1-2.6-1.9-4-2.4s-2.9-.8-4.5-.7c-1.6.1-3.1.5-4.5 1.4-1.6.9-2.8 2-3.6 3.4-.8 1.3-1.4 2.8-1.6 4.3-.2 1.5-.2 3.1.1 4.7.3 1.4.9 2.9 1.7 4.3z"/><path d="m441.1 127.9 12.5 21.6-4.8 2.8-17.8-30.7 3.8-2.2 30.4 12-12.8-22.1 4.9-2.8 17.7 30.7-4 2.3-29.9-11.6z" class="st8"/><path d="M489.2 93.7 479 99.6l15.3 26.4-4.9 2.8-15.3-26.4-10.3 5.9-2.5-4.3 25.4-14.6 2.5 4.3z"/><path d="M513.2 83.8c-.5-.2-1.1-.2-1.8-.3-.8 0-1.6 0-2.5.1-.9.1-1.9.3-2.9.6s-2 .7-2.9 1.3c-2 1.2-3.3 2.4-3.9 3.7-.5 1.3-.4 2.6.3 4 .4.8.9 1.3 1.5 1.6.6.3 1.3.4 2.1.4s1.8-.1 2.9-.4c1.1-.3 2.4-.6 3.8-1 1.8-.5 3.4-.9 4.9-1.2 1.5-.3 2.9-.3 4.2-.1 1.3.2 2.4.6 3.4 1.3 1 .7 2 1.7 2.8 3.1.9 1.6 1.4 3.1 1.4 4.5s-.2 2.8-.8 4.1-1.5 2.5-2.7 3.6c-1.2 1.1-2.5 2.1-4.1 3-2.3 1.3-4.8 2.3-7.4 2.9-2.6.6-5.2.7-7.7.3l-.2-5.4c.6.2 1.4.3 2.3.3 1 .1 2 0 3.2-.1 1.2-.2 2.4-.4 3.6-.8 1.3-.4 2.5-.9 3.7-1.6 1.9-1.1 3.2-2.3 3.8-3.5.7-1.3.6-2.5-.1-3.8-.4-.8-1-1.3-1.7-1.6-.7-.3-1.5-.4-2.5-.4-.9 0-2 .2-3.3.5-1.2.3-2.6.6-4.1 1.1-1.8.5-3.3.8-4.7 1-1.4.2-2.7.2-3.8 0-1.1-.2-2.1-.6-3-1.2-.9-.6-1.7-1.5-2.4-2.8-.9-1.5-1.3-3-1.4-4.5-.1-1.5.1-2.9.7-4.3.5-1.4 1.4-2.6 2.5-3.8 1.1-1.2 2.5-2.2 4.1-3.2 2.1-1.2 4.2-2 6.3-2.3 2.1-.4 4.2-.4 6.1-.2l.3 5.1z" class="st8"/></g><g><path d="M413.2 198.9c-1.4-.2-2.7.1-3.9.8-.6.3-1 .7-1.4 1.1-.4.4-.7.9-.9 1.4-.2.5-.4 1-.4 1.5-.1.5-.1 1.1 0 1.6s.2 1.1.4 1.6.4 1 .7 1.5c.4.7.9 1.4 1.5 1.9.6.6 1.2 1 1.9 1.2.7.3 1.4.4 2.2.3.8-.1 1.6-.3 2.4-.8.8-.4 1.4-1 2-1.6.5-.6.9-1.3 1.2-2l1.3 1c-.3.8-.8 1.5-1.4 2.2-.7.7-1.5 1.3-2.5 1.9-1 .6-2 .9-3 1-1 .1-1.9 0-2.8-.3-.9-.3-1.7-.8-2.5-1.5s-1.4-1.5-1.9-2.4c-.4-.6-.7-1.3-.9-2-.2-.7-.3-1.4-.4-2 0-.7 0-1.4.1-2 .1-.7.3-1.3.6-1.9.3-.6.7-1.2 1.2-1.7s1.1-1 1.8-1.4c.8-.5 1.7-.8 2.5-1 .8-.2 1.6-.2 2.5 0l-.3 1.6zM422.2 205.4c.3.1.7.2 1.1.2.4 0 .7 0 1.1-.1.4-.1.7-.2 1.1-.3.4-.1.7-.3 1-.5.5-.3.9-.6 1.3-.9.4-.3.6-.7.8-1 .2-.4.3-.7.3-1.1 0-.4-.1-.7-.3-1.1-.2-.4-.5-.7-.9-.9-.4-.2-.8-.3-1.3-.3s-1 0-1.6.1c-.6.1-1.1.2-1.7.3-.6.1-1.2.2-1.7.2-.6 0-1.1 0-1.6-.1s-1-.3-1.5-.6-.8-.7-1.2-1.2c-.3-.6-.5-1.2-.5-1.8 0-.6.2-1.2.5-1.8.3-.6.7-1.1 1.2-1.6s1-.9 1.7-1.3c.4-.2.7-.4 1.1-.6.4-.2.8-.3 1.2-.4.4-.1.8-.1 1.2-.1.4 0 .8.1 1.1.3l-.2 1.5c-.3-.1-.6-.1-.9-.1-.3 0-.6 0-1 .1l-.9.3c-.3.1-.6.3-.9.4-.4.2-.7.5-1.1.8-.3.3-.6.6-.8 1-.2.3-.3.7-.4 1.1 0 .4.1.8.3 1.2.2.4.5.7.9.8.4.2.8.3 1.3.3s1 0 1.6-.1c.6-.1 1.1-.1 1.7-.2s1.2-.1 1.7-.2c.6 0 1.1 0 1.7.1s1 .3 1.5.6.8.7 1.2 1.3c.3.4.4.9.5 1.3.1.4 0 .9-.1 1.3s-.3.8-.5 1.2c-.2.4-.5.7-.8 1.1-.3.3-.7.7-1.1 1s-.8.6-1.2.8c-.5.3-.9.5-1.4.6-.5.2-.9.3-1.3.3-.4.1-.9.1-1.2 0-.4-.1-.8-.2-1.1-.3l.1-1.6zM433.8 198.8c.3.1.7.2 1.1.2.4 0 .7 0 1.1-.1.4-.1.7-.2 1.1-.3.4-.1.7-.3 1-.5.5-.3.9-.6 1.3-.9.4-.3.6-.7.8-1 .2-.4.3-.7.3-1.1 0-.4-.1-.7-.3-1.1-.2-.4-.5-.7-.9-.9-.4-.2-.8-.3-1.3-.3s-1 0-1.6.1c-.6.1-1.1.2-1.7.3s-1.2.2-1.7.2c-.6 0-1.1 0-1.6-.1s-1-.3-1.5-.6-.8-.7-1.2-1.2c-.3-.6-.5-1.2-.5-1.8 0-.6.2-1.2.5-1.8.3-.6.7-1.1 1.2-1.6s1-.9 1.7-1.3c.4-.2.7-.4 1.1-.6.4-.2.8-.3 1.2-.4.4-.1.8-.1 1.2-.1.4 0 .8.1 1.1.3l-.2 1.5c-.3-.1-.6-.1-.9-.1s-.6 0-1 .1l-.9.3c-.3.1-.6.3-.9.4-.4.2-.7.5-1.1.8-.3.3-.6.6-.8 1-.2.3-.3.7-.4 1.1 0 .4.1.8.3 1.2.2.4.5.7.9.8.4.2.8.3 1.3.3s1 0 1.6-.1c.6-.1 1.1-.1 1.7-.2s1.2-.1 1.7-.2c.6 0 1.1 0 1.7.1s1 .3 1.5.6.8.7 1.2 1.3c.3.4.4.9.5 1.3s0 .9-.1 1.3-.3.8-.5 1.2c-.2.4-.5.7-.8 1.1-.3.3-.7.7-1.1 1s-.8.6-1.2.8c-.5.3-.9.5-1.4.6-.5.2-.9.3-1.3.3s-.9.1-1.2 0c-.4-.1-.8-.2-1.1-.3l.1-1.6z"/><path d="m455.9 175.6 1.4-.8.8 2.6c.4 1.2.7 2.2.9 2.9.2.7.4 1.2.6 1.5.1.2.3.4.5.5.2.1.4 0 .7-.1.4-.2.7-.5.9-1 .2-.4.3-.9.4-1.4 0-.5 0-1.1-.2-1.7-.1-.6-.4-1.2-.7-1.7-.4-.8-1-1.4-1.7-1.9s-1.4-.8-2.2-.9c-.8-.2-1.6-.2-2.5 0-.9.2-1.8.5-2.6 1-.9.5-1.7 1.2-2.3 2-.6.8-1 1.6-1.2 2.5-.2.9-.3 1.8-.2 2.8.1 1 .4 1.9.9 2.7.5.9 1.1 1.6 1.9 2.2s1.6 1 2.4 1.2c.9.2 1.8.3 2.8.1 1-.1 1.9-.5 2.9-1.1.9-.5 1.7-1.2 2.4-1.9.7-.8 1.1-1.6 1.5-2.5l1.1.2c-.1.5-.3 1-.6 1.5s-.6 1-.9 1.4c-.4.5-.8.9-1.3 1.3s-1 .8-1.6 1.1c-1.1.7-2.3 1.1-3.4 1.2s-2.3.1-3.4-.1c-1.1-.3-2.1-.7-3-1.4-.9-.7-1.7-1.5-2.3-2.6-.4-.7-.7-1.4-.9-2.2-.2-.7-.3-1.5-.2-2.2 0-.7.1-1.5.4-2.2s.5-1.4.9-2.1c.4-.7.9-1.3 1.4-1.8.6-.6 1.2-1.1 2-1.5.7-.4 1.4-.7 2.1-.9.7-.2 1.4-.4 2.1-.4.7 0 1.4 0 2 .1.7.1 1.3.3 1.9.6.6.3 1.1.7 1.6 1.1.5.5.9 1 1.3 1.6.4.7.7 1.5.8 2.3.1.8.1 1.5 0 2.3-.1.7-.4 1.4-.8 1.9-.4.6-.8 1-1.4 1.3-.5.3-1.1.5-1.6.4-.5 0-.9-.3-1.3-.7-.1.6-.3 1.1-.6 1.5-.3.4-.7.8-1.1 1-.4.2-.8.4-1.2.4-.4.1-.9 0-1.3-.1s-.9-.3-1.3-.6-.8-.7-1.1-1.3c-.2-.4-.4-.9-.5-1.3-.1-.5-.2-1-.2-1.4s0-1 .1-1.4c.1-.5.3-.9.5-1.3s.5-.8.7-1.1c.3-.3.6-.6 1-.8.5-.3 1-.4 1.5-.5.5 0 .9.1 1.3.3l-.1-.6zm-2.5 8c.2.3.3.5.5.7.2.2.4.3.7.4.2.1.5.1.7.1.3 0 .5-.1.8-.3.4-.2.7-.6.9-1 .2-.4.3-.9.4-1.5 0-.5 0-1.1-.1-1.6s-.3-1.1-.6-1.6c-.2-.3-.3-.5-.5-.7-.2-.2-.4-.3-.6-.4-.2-.1-.4-.1-.7-.1-.2 0-.5.1-.8.3-.4.3-.8.6-1 1.1-.2.5-.4 1-.4 1.5s0 1.1.1 1.6.4 1 .6 1.5z" class="st8"/><path d="m471.9 180.1-1.5.9-4.9-8.6-1.9 1.1-.6-1 1.9-1.1-.6-1.1c-.3-.5-.5-1-.7-1.5-.2-.5-.2-.9-.2-1.4 0-.4.2-.8.4-1.2.2-.4.6-.7 1.2-1 .1-.1.3-.1.4-.2.1-.1.2-.1.3-.1.1 0 .2-.1.3-.1.1 0 .2-.1.4-.1l.7 1.2c-.2 0-.3.1-.5.2l-.6.3c-.3.2-.5.4-.7.6-.1.2-.2.4-.2.6 0 .2 0 .5.1.8.1.3.3.6.4.9l.7 1.3 2.3-1.3.6 1-2.3 1.3 5 8.5zM474.8 165.4c.8-.5 1.6-.7 2.3-.8.8-.1 1.5 0 2.1.2.7.2 1.3.6 1.8 1.1.6.5 1 1.1 1.4 1.8.4.7.6 1.4.8 2.1.1.7.1 1.4 0 2.1-.1.7-.5 1.4-.9 2-.5.6-1.1 1.2-1.9 1.6-.8.5-1.6.7-2.3.8-.8.1-1.5 0-2.1-.2-.7-.2-1.3-.6-1.9-1-.6-.5-1-1.1-1.4-1.8s-.7-1.4-.8-2.1c-.1-.7-.1-1.5 0-2.2.2-.7.5-1.4.9-2 .6-.6 1.2-1.1 2-1.6zm6.1 3.2c-.3-.5-.6-1-1-1.3-.4-.4-.8-.7-1.3-.9s-1-.3-1.5-.2c-.5 0-1.1.2-1.6.5s-1 .7-1.2 1.1c-.3.4-.5.9-.5 1.4-.1.5 0 1 .1 1.6.1.5.3 1.1.6 1.6s.6.9 1 1.3.8.6 1.3.8c.5.2 1 .3 1.5.2.5 0 1.1-.2 1.6-.5s1-.7 1.3-1.1c.3-.4.5-.9.5-1.4.1-.5 0-1-.1-1.5-.2-.6-.4-1.1-.7-1.6zM489.3 170.1l-1.5.9-4.2-7.3c-.2-.3-.3-.6-.5-.8-.2-.3-.3-.5-.4-.7-.2-.2-.3-.5-.4-.7l1.6-.9.8 1.3c.1-.7.3-1.4.7-2 .4-.6.9-1 1.6-1.5.7-.4 1.3-.6 1.9-.7.6 0 1.1.1 1.6.3.5.3 1 .6 1.4 1.2.4.5.8 1.1 1.2 1.8l3 5.1-1.5.9-2.9-4.9c-.3-.5-.6-1-.9-1.4-.3-.4-.6-.7-1-1-.3-.2-.7-.3-1.1-.3-.4 0-.8.1-1.4.4-.5.3-.8.6-1.1 1-.3.4-.4.8-.5 1.2-.1.4-.1.8-.1 1.1 0 .4.1.6.2.9l3.5 6.1zM494.9 155.5l-1.9 1.1-.6-1 1.9-1.1-1.4-2.6 1.2-1.3 1.7 3 2.4-1.4.6 1-2.4 1.4 3.3 5.7c.1.2.3.4.4.6.1.2.3.4.5.5l.6.3c.2 0 .5 0 .7-.2.2-.1.4-.3.6-.4l.6-.6.7 1.2c-.1.2-.3.5-.6.7-.2.2-.5.4-.8.6-.5.3-1 .5-1.4.5s-.8-.1-1.1-.3c-.3-.2-.7-.5-.9-.8-.3-.4-.6-.8-.8-1.2l-3.3-5.7zM501.4 157l-.7-1.3 5.3-3.1.7 1.3-5.3 3.1zM513.9 155.9l-1.5.9-4.9-8.6-1.9 1.1-.6-1 1.9-1.1-.6-1.1c-.3-.5-.5-1-.7-1.5-.2-.5-.2-.9-.2-1.4 0-.4.2-.8.4-1.2.2-.4.6-.7 1.2-1 .1-.1.3-.1.4-.2.1-.1.2-.1.3-.1.1 0 .2-.1.3-.1.1 0 .2-.1.4-.1l.7 1.2c-.2 0-.3.1-.5.2l-.6.3c-.3.2-.5.4-.7.6-.1.2-.2.4-.2.6 0 .2 0 .5.1.8.1.3.3.6.4.9l.7 1.3 2.3-1.3.6 1-2.3 1.3 5 8.5zM516.4 141.4c.4-.2.8-.4 1.1-.5.4-.1.7-.2 1.1-.2h1c.3.1.7.2 1 .3l-.7-1.3 1.5-.9 1.3 2.4 4.2 7.2-1.5.9-.8-1.4c0 .3-.1.6-.2.9-.1.3-.3.6-.5.9-.2.3-.5.6-.7.9-.3.3-.6.5-1 .8-.5.3-1.1.5-1.6.6-.5.1-1 .1-1.5.1s-.9-.2-1.4-.3c-.4-.2-.9-.4-1.2-.7-.4-.3-.7-.6-1-1-.3-.4-.6-.7-.8-1.1-.4-.6-.6-1.3-.8-2-.2-.7-.2-1.4-.1-2.1.1-.7.4-1.3.8-1.9s1-1.2 1.8-1.6zm5.2 8.7c.4-.3.8-.6 1.1-1 .3-.4.5-.9.6-1.4.1-.5.1-1.1-.1-1.7-.1-.6-.4-1.3-.8-1.9-.3-.5-.6-.9-1-1.2-.4-.3-.8-.6-1.3-.7-.5-.1-.9-.2-1.4-.1-.5.1-1 .2-1.5.5-.4.2-.7.5-.9.7l-.6.9c-.1.3-.2.6-.2 1v1c0 .3.1.7.3 1 .1.3.3.6.4.9.2.3.4.6.6.8.2.3.4.5.7.8.3.2.5.4.8.6.3.2.6.3 1 .3.3 0 .7 0 1.1-.1.4 0 .8-.2 1.2-.4zM532.1 135.4c-.5-.2-1-.3-1.6-.2-.5.1-1 .3-1.5.5-.5.3-.9.7-1.2 1.1-.3.4-.5.9-.6 1.4-.1.5-.1 1 .1 1.6.1.5.3 1.1.6 1.6s.6 1 1 1.4c.4.4.8.7 1.3.8.5.2 1 .2 1.5.2s1.1-.2 1.6-.6c1.1-.6 1.8-1.5 2.2-2.7l1.2 1c-.2.6-.6 1.2-1.1 1.7-.5.5-1 .9-1.7 1.3-.8.5-1.6.7-2.3.8-.7.1-1.4 0-2.1-.2-.7-.2-1.2-.6-1.8-1-.5-.5-1-1.1-1.4-1.7-.4-.7-.7-1.4-.8-2.2-.1-.7-.2-1.5 0-2.2.1-.7.4-1.3.9-2 .4-.6 1-1.1 1.8-1.6.8-.4 1.5-.7 2.2-.8.7-.1 1.3 0 1.9.2l-.2 1.6zM547 135.3c-.3.7-.6 1.4-1.1 2-.5.6-1.2 1.1-2 1.5-.8.4-1.5.7-2.2.8-.7.1-1.4 0-2.1-.2s-1.3-.5-1.8-1c-.6-.5-1.1-1.1-1.5-1.8-.4-.7-.7-1.4-.8-2.1-.1-.7-.1-1.4 0-2.1.1-.7.4-1.3.8-1.9.4-.6 1-1.1 1.8-1.5.7-.4 1.4-.7 2.1-.7.7-.1 1.3 0 1.9.2s1.1.6 1.6 1c.5.5 1 1.1 1.3 1.7 0 .1.1.1.1.2s.1.2.1.3l-7.3 4.2.3.4c.3.4.6.8 1 1.1.4.3.8.5 1.2.6.4.1.9.2 1.3.1.5-.1.9-.2 1.4-.5.7-.4 1.2-.8 1.6-1.4.4-.5.7-1.2.9-1.8l1.4.9zm-3.9-3.9-.1-.1c-.3-.4-.6-.7-.9-1-.3-.3-.7-.5-1-.6-.4-.1-.7-.1-1.1-.1-.4.1-.8.2-1.2.4-.4.3-.8.6-1 .9-.3.4-.4.7-.5 1.1-.1.4-.1.8-.1 1.3 0 .4.2.9.3 1.3l5.6-3.2z"/></g><g><path d="M42.7 193.4h5v.9h-4v2.2h3.5v.9h-3.5v3.3h-1v-7.3zM54.6 194.4c.5.6.7 1.4.7 2.4 0 1.1-.3 2-.8 2.7-.6.8-1.5 1.2-2.7 1.2-1.1 0-2-.4-2.6-1.1-.6-.7-.8-1.6-.8-2.7 0-1 .2-1.8.7-2.5.6-.9 1.5-1.3 2.7-1.3 1.3.1 2.2.5 2.8 1.3zm-.8 4.6c.4-.6.6-1.3.6-2.1s-.2-1.5-.7-2c-.4-.5-1-.8-1.8-.8-.7 0-1.3.3-1.8.8s-.7 1.3-.7 2.3c0 .8.2 1.5.6 2 .4.5 1.1.8 2 .8.8-.1 1.4-.4 1.8-1zM56.5 193.4h1.1l3.6 5.8v-5.8h.9v7.2H61l-3.6-5.8v5.8h-.9v-7.2zM69 193.4v.9h-2.4v6.3h-1v-6.3h-2.4v-.9H69z"/><path d="M72.5 193.4h5v.9h-4v2.2H77v.9h-3.5v3.3h-1v-7.3zM84.5 194.4c.5.6.7 1.4.7 2.4 0 1.1-.3 2-.8 2.7-.6.8-1.5 1.2-2.7 1.2-1.1 0-2-.4-2.6-1.1-.6-.7-.8-1.6-.8-2.7 0-1 .2-1.8.7-2.5.6-.9 1.5-1.3 2.7-1.3 1.2.1 2.2.5 2.8 1.3zm-.9 4.6c.4-.6.6-1.3.6-2.1s-.2-1.5-.7-2c-.4-.5-1-.8-1.8-.8-.7 0-1.3.3-1.8.8s-.7 1.3-.7 2.3c0 .8.2 1.5.6 2 .4.5 1.1.8 2 .8.8-.1 1.4-.4 1.8-1zM86.5 193.4h3.3c.5 0 1 .1 1.3.2.7.3 1 .9 1 1.7 0 .4-.1.8-.3 1.1-.2.3-.4.5-.7.7.3.1.5.3.6.4.1.2.2.5.2.9v1c0 .3 0 .5.1.6.1.2.2.4.3.4v.2h-1.2c0-.1-.1-.1-.1-.2v-.6l-.1-1.2c0-.5-.2-.8-.5-.9-.2-.1-.5-.1-.8-.1h-2.1v3.1h-1v-7.3zm3.1 3.3c.4 0 .8-.1 1.1-.3.3-.2.4-.5.4-1s-.2-.9-.5-1c-.2-.1-.5-.1-.8-.1h-2.3v2.5h2.1zM93.5 193.4h1.4l2.1 6.1 2-6.1h1.4v7.2h-.9v-6l-2 6h-1l-2.1-6v6h-.9v-7.2zM104 193.4h1.1l2.6 7.2h-1.1l-.7-2.1h-2.8l-.8 2.1h-1l2.7-7.2zm1.6 4.2-1.1-3.2-1.1 3.2h2.2zM113 193.4v.9h-2.4v6.3h-1v-6.3h-2.4v-.9h5.8zM114.6 198.2c0 .4.1.7.3 1 .3.5.9.7 1.6.7.4 0 .7-.1 1-.2.6-.2.8-.6.8-1.1 0-.4-.1-.7-.4-.8-.2-.2-.6-.3-1.1-.4l-.9-.2c-.6-.1-1-.3-1.3-.5-.4-.3-.7-.7-.7-1.3 0-.6.2-1.2.7-1.6.4-.4 1-.6 1.8-.6.7 0 1.4.2 1.9.5.5.4.8.9.8 1.7h-.9c0-.4-.1-.7-.3-.9-.3-.4-.8-.6-1.4-.6-.5 0-.9.1-1.2.4s-.4.5-.4.8c0 .4.1.6.4.8.2.1.6.2 1.3.4l1 .2c.5.1.8.3 1.1.5.4.3.7.8.7 1.5 0 .8-.3 1.4-.8 1.7s-1.2.5-2 .5c-.9 0-1.6-.2-2-.7-.5-.5-.7-1.1-.7-1.8h.7z" class="st8"/><path d="M120.9 195.4h1v1.1h-1v-1.1zm0 4.1h1v1.1h-1v-1.1zM131.2 193.4v.9h-2.4v6.3h-1v-6.3h-2.4v-.9h5.8zM137.3 193.4v.9h-2.4v6.3h-1v-6.3h-2.4v-.9h5.8zM138.3 193.4h5v.9h-4v2.2h3.5v.9h-3.5v3.3h-1v-7.3zM143.3 201.6c.2 0 .4-.2.5-.5 0-.1.1-.3.1-.4v-.2h-.5v-1.1h1v1c0 .4-.1.7-.2 1s-.4.5-.8.5v-.3zM154.7 194.4c.5.6.7 1.4.7 2.4 0 1.1-.3 2-.8 2.7-.6.8-1.5 1.2-2.7 1.2-1.1 0-2-.4-2.6-1.1-.6-.7-.8-1.6-.8-2.7 0-1 .2-1.8.7-2.5.6-.9 1.5-1.3 2.7-1.3 1.2.1 2.2.5 2.8 1.3zm-.9 4.6c.4-.6.6-1.3.6-2.1s-.2-1.5-.7-2c-.4-.5-1-.8-1.8-.8-.7 0-1.3.3-1.8.8s-.7 1.3-.7 2.3c0 .8.2 1.5.6 2 .4.5 1.1.8 2 .8.8-.1 1.4-.4 1.8-1zM161.7 193.4v.9h-2.4v6.3h-1v-6.3h-2.4v-.9h5.8zM162.7 193.4h5v.9h-4v2.2h3.5v.9h-3.5v3.3h-1v-7.3zM167.7 201.6c.2 0 .4-.2.5-.5 0-.1.1-.3.1-.4v-.2h-.5v-1.1h1v1c0 .4-.1.7-.2 1s-.4.5-.8.5v-.3zM173.7 193.4l1.4 5.8 1.6-5.8h1.1l1.6 5.8 1.4-5.8h1.1l-1.9 7.2h-1l-1.7-5.9-1.7 5.9h-1l-1.9-7.2h1zM188.5 194.4c.5.6.7 1.4.7 2.4 0 1.1-.3 2-.8 2.7-.6.8-1.5 1.2-2.7 1.2-1.1 0-2-.4-2.6-1.1-.6-.7-.8-1.6-.8-2.7 0-1 .2-1.8.7-2.5.6-.9 1.5-1.3 2.7-1.3 1.3.1 2.2.5 2.8 1.3zm-.8 4.6c.4-.6.6-1.3.6-2.1s-.2-1.5-.7-2c-.4-.5-1-.8-1.8-.8-.7 0-1.3.3-1.8.8s-.7 1.3-.7 2.3c0 .8.2 1.5.6 2 .4.5 1.1.8 2 .8.8-.1 1.4-.4 1.8-1zM190.5 193.4h5v.9h-4v2.2h3.5v.9h-3.5v3.3h-1v-7.3zM196.6 193.4h5v.9h-4v2.2h3.5v.9h-3.5v3.3h-1v-7.3zM201.6 201.6c.2 0 .4-.2.5-.5 0-.1.1-.3.1-.4v-.2h-.5v-1.1h1v1c0 .4-.1.7-.2 1s-.4.5-.8.5v-.3zM207.2 193.4h5.2v.9h-4.3v2.2h3.9v.8h-3.9v2.4h4.3v.9h-5.3v-7.2zM219.7 194.4c.5.6.7 1.4.7 2.4 0 1.1-.3 2-.8 2.7-.6.8-1.5 1.2-2.7 1.2-1.1 0-2-.4-2.6-1.1-.6-.7-.8-1.6-.8-2.7 0-1 .2-1.8.7-2.5.6-.9 1.5-1.3 2.7-1.3 1.2.1 2.2.5 2.8 1.3zm-.9 4.6c.4-.6.6-1.3.6-2.1s-.2-1.5-.7-2c-.4-.5-1-.8-1.8-.8-.7 0-1.3.3-1.8.8s-.7 1.3-.7 2.3c0 .8.2 1.5.6 2 .4.5 1.1.8 2 .8.8-.1 1.4-.4 1.8-1zM226.7 193.4v.9h-2.4v6.3h-1v-6.3h-2.4v-.9h5.8zM230.9 195.7c-.1-.2-.2-.5-.2-.7 0-.5.2-.8.5-1.2.3-.3.7-.5 1.3-.5.5 0 .9.1 1.2.4s.4.6.4 1c0 .5-.1.9-.4 1.2-.2.2-.5.4-.8.7l1.3 1.6c.1-.3.1-.5.2-.6 0-.1.1-.3.1-.5h.8c-.1.5-.2.9-.3 1.3-.2.4-.2.6-.2.5l1.3 1.5H235l-.7-.8c-.3.3-.5.5-.7.6-.4.2-.8.4-1.3.4-.7 0-1.3-.2-1.6-.6-.3-.4-.5-.9-.5-1.4 0-.5.2-1 .5-1.4.2-.2.6-.5 1.1-.8-.6-.2-.8-.5-.9-.7zm2.1 4c.3-.2.5-.4.6-.6l-1.6-2c-.5.3-.8.5-.9.7-.2.2-.3.5-.3.9s.1.7.4.9c.3.2.6.3.9.3.4 0 .7 0 .9-.2zm0-4.1c.2-.2.3-.5.3-.7 0-.2-.1-.4-.2-.5-.1-.2-.3-.2-.6-.2-.4 0-.6.1-.7.4-.1.1-.1.3-.1.4 0 .2.1.4.2.6.1.2.3.4.5.7.2-.4.4-.5.6-.7zM240.3 198.2c0 .4.1.7.3 1 .3.5.9.7 1.6.7.4 0 .7-.1 1-.2.6-.2.8-.6.8-1.1 0-.4-.1-.7-.4-.8-.2-.2-.6-.3-1.1-.4l-.9-.2c-.6-.1-1-.3-1.3-.5-.4-.3-.7-.7-.7-1.3 0-.6.2-1.2.7-1.6.4-.4 1-.6 1.8-.6.7 0 1.4.2 1.9.5.5.4.8.9.8 1.7h-.9c0-.4-.1-.7-.3-.9-.3-.4-.8-.6-1.4-.6-.5 0-.9.1-1.2.4s-.4.5-.4.8c0 .4.1.6.4.8.2.1.6.2 1.3.4l1 .2c.5.1.8.3 1.1.5.4.3.7.8.7 1.5 0 .8-.3 1.4-.8 1.7s-1.2.5-2 .5c-.9 0-1.6-.2-2-.7-.5-.5-.7-1.1-.7-1.8h.7zM246.9 193.4l2.1 6.1 2-6.1h1.1l-2.6 7.2h-1l-2.6-7.2h1zM257.8 193.6c.7.4 1.1 1 1.3 2h-1c-.1-.5-.4-.9-.7-1.1-.4-.2-.8-.4-1.4-.4-.7 0-1.2.2-1.6.7s-.7 1.2-.7 2.2c0 .9.2 1.5.6 2.1.4.5 1 .8 1.8.8.6 0 1.2-.2 1.6-.6.4-.4.6-1 .6-1.8h-2.2v-.8h3.1v3.8h-.6l-.2-.9c-.3.4-.6.6-.9.8-.4.2-1 .4-1.6.4-.8 0-1.6-.3-2.2-.8-.7-.7-1-1.6-1-2.8 0-1.2.3-2.2 1-2.9.6-.7 1.4-1 2.4-1 .6-.1 1.2 0 1.7.3z"/></g></svg>